<svg xmlns="http://www.w3.org/2000/svg" viewBox="0 0 48 48"><defs><style>.cls-1{fill:#fc6;}.cls-2{fill:#ffde76;}.cls-3{fill:#db5669;}.cls-4{fill:#f26674;}</style></defs><title>Bubble word Question sign</title><g id="Bubble_word_Question_sign" data-name="Bubble word Question sign"><path class="cls-1" d="M47,7c0,30.36.22,28.68-.54,30A4,4,0,0,1,43,39H9L1,45V7A4,4,0,0,1,5,3H43A4,4,0,0,1,47,7Z"/><path class="cls-2" d="M47,7c0,30.36.22,28.68-.54,30H23A20,20,0,0,1,3,17V3.54A4,4,0,0,1,5,3H43A4,4,0,0,1,47,7Z"/><path class="cls-3" d="M21.48,7.41A8,8,0,0,0,18,14a2,2,0,0,0,1.74,2A2,2,0,0,1,16,15,8,8,0,0,1,21.48,7.41Z"/><path class="cls-3" d="M25.74,26A2,2,0,0,1,22,25V21a2,2,0,0,1,2-2c.59,0,0-.07,0,1v4A2,2,0,0,0,25.74,26Z"/><path class="cls-4" d="M24,7a7.79,7.79,0,0,0-2.52.41A8,8,0,0,0,18,14a2,2,0,0,0,1.74,2A1.91,1.91,0,0,0,20,15a4,4,0,1,1,4.28,4c-.4.67-.28,1-.28,5a2,2,0,0,0,1.74,2c.35-.59.26-.92.26-3.23C35.21,20.28,33.18,7,24,7Z"/><path class="cls-3" d="M26,33a2,2,0,1,1-2.82-1.82A2,2,0,0,1,26,33Z"/><path class="cls-4" d="M25.82,33.82a2,2,0,0,1-2.64-2.64A2,2,0,0,1,25.82,33.82Z"/></g></svg>