<?xml version="1.0" encoding="utf-8"?>
<!-- Generator: Adobe Illustrator 24.3.0, SVG Export Plug-In . SVG Version: 6.00 Build 0)  -->
<svg version="1.1" id="Layer_1" xmlns="http://www.w3.org/2000/svg" xmlns:xlink="http://www.w3.org/1999/xlink" x="0px" y="0px"
	 viewBox="0 0 800 800" enable-background="new 0 0 800 800" xml:space="preserve">
<g>
	<path d="M697.738,129.552c21.366,0,38.746-17.382,38.746-38.746c0-21.366-17.38-38.748-38.746-38.748
		c-21.366,0-38.75,17.382-38.75,38.748C658.988,112.17,676.372,129.552,697.738,129.552z M697.738,70.611
		c11.134,0,20.193,9.059,20.193,20.195c0,11.134-9.059,20.193-20.193,20.193c-11.138,0-20.197-9.059-20.197-20.193
		C677.541,79.671,686.6,70.611,697.738,70.611z"/>
	<path d="M630.603,141.637c-22.193,21.026-44.385,42.052-66.576,63.078c-6.037-3.887-13.2-6.171-20.899-6.171
		c-10.54,0-20.099,4.243-27.091,11.094l-84.673-52.343c1.212-3.748,1.882-7.737,1.882-11.883c0-21.366-17.38-38.748-38.746-38.748
		c-21.366,0-38.75,17.382-38.75,38.748c0,4.339,0.749,8.499,2.071,12.397l-80.634,51.451c-6.955-6.622-16.338-10.717-26.677-10.717
		c-21.366,0-38.75,17.382-38.75,38.746c0,7.148,1.98,13.828,5.37,19.583l-86.852,84.653c-5.939-3.706-12.926-5.884-20.428-5.884
		c-21.366,0-38.746,17.382-38.746,38.746c0,21.364,17.38,38.746,38.746,38.746c21.366,0,38.746-17.382,38.746-38.746
		c0-7.147-1.979-13.826-5.369-19.58l86.854-84.654c5.94,3.706,12.927,5.884,20.429,5.884c21.366,0,38.746-17.382,38.746-38.748
		c0-4.339-0.749-8.499-2.071-12.398l80.636-51.452c6.956,6.623,16.34,10.718,26.68,10.718c10.539,0,20.098-4.242,27.089-11.093
		l84.674,52.343c-1.211,3.748-1.881,7.735-1.881,11.881c0,21.366,17.38,38.748,38.746,38.748c21.366,0,38.746-17.382,38.746-38.748
		c0-6.953-1.866-13.469-5.087-19.116c22.312-21.139,44.624-42.278,66.935-63.418C652.407,146.527,639.272,133.423,630.603,141.637z
		 M109.849,394.58c-11.134,0-20.193-9.059-20.193-20.193c0-11.134,9.059-20.193,20.193-20.193s20.193,9.059,20.193,20.193
		C130.041,385.521,120.982,394.58,109.849,394.58z M250.509,257.485c-11.138,0-20.197-9.059-20.197-20.195
		c0-11.134,9.059-20.193,20.197-20.193c11.134,0,20.193,9.059,20.193,20.193C270.702,248.426,261.643,257.485,250.509,257.485z
		 M394.499,165.605c-11.138,0-20.197-9.059-20.197-20.193c0-11.136,9.059-20.195,20.197-20.195c11.134,0,20.193,9.059,20.193,20.195
		C414.692,156.546,405.632,165.605,394.499,165.605z M543.127,257.485c-11.134,0-20.193-9.059-20.193-20.195
		c0-11.134,9.059-20.193,20.193-20.193c11.134,0,20.193,9.059,20.193,20.193C563.32,248.426,554.26,257.485,543.127,257.485z"/>
	<circle cx="656.671" cy="130.099" r="8.677"/>
	<path d="M298.681,722.286v-75.413c0-0.005,0.001-0.009,0.001-0.014c0-10.84,0-21.68,0-32.52c0-11.938-18.553-11.958-18.553,0
		c0,0,0,0.001,0,0.001h-0.001v107.946c0,3.916-3.184,7.102-7.102,7.102h-46.632c-3.918,0-7.102-3.187-7.102-7.102V447.461
		c0-3.916,3.184-7.102,7.102-7.102h46.632c3.918,0,7.102,3.187,7.102,7.102v110.593h0.001c0,0,0,0.001,0,0.001
		c0,11.938,18.553,11.958,18.553,0c0-10.84,0-21.68,0-32.521c0-0.005-0.001-0.009-0.001-0.014v-78.059
		c0-14.146-11.51-25.655-25.655-25.655h-46.632c-14.146,0-25.655,11.51-25.655,25.655v274.826c0,14.146,11.51,25.655,25.655,25.655
		h46.632C287.171,747.942,298.681,736.432,298.681,722.286z"/>
	<path d="M289.405,576.196c-4.792,0-8.677,3.885-8.677,8.677s3.885,8.677,8.677,8.677c4.792,0,8.677-3.885,8.677-8.677
		S294.198,576.196,289.405,576.196z"/>
	<path d="M591.026,558.054L591.026,558.054l0.001-110.593c0-14.146-11.51-25.655-25.655-25.655H518.74
		c-14.15,0-25.66,11.51-25.66,25.655v274.826c0,14.146,11.51,25.655,25.66,25.655h46.632c14.146,0,25.655-11.51,25.655-25.655
		V614.34h-0.001c0,0,0-0.001,0-0.001c0-11.938-18.553-11.958-18.553,0c0,10.84,0,21.68,0,32.52c0,0.002,0.001,0.004,0.001,0.006
		v75.421c0,3.916-3.184,7.102-7.102,7.102H518.74c-3.918,0-7.107-3.187-7.107-7.102V447.461c0-3.916,3.189-7.102,7.107-7.102h46.632
		c3.918,0,7.102,3.187,7.102,7.102v78.068c0,0.002-0.001,0.004-0.001,0.006c0,10.84,0,21.68,0,32.521
		C572.473,569.993,591.026,570.013,591.026,558.054C591.026,558.055,591.026,558.054,591.026,558.054z"/>
	<circle cx="581.75" cy="584.873" r="8.677"/>
	<path d="M126.617,485.072H76.421c-13.163,0-23.871,10.71-23.871,23.875v215.122c0,13.163,10.708,23.873,23.871,23.873h50.196
		c13.163,0,23.875-10.71,23.875-23.873V508.947C150.492,495.782,139.78,485.072,126.617,485.072z M131.939,724.069
		c0,2.883-2.437,5.32-5.322,5.32H76.421c-2.881,0-5.318-2.437-5.318-5.32V508.947c0-2.885,2.437-5.322,5.318-5.322h50.196
		c2.885,0,5.322,2.437,5.322,5.322V724.069z"/>
	<path d="M420.199,747.942c13.24,0,24.011-10.771,24.011-24.009V315.968c0-13.238-10.771-24.009-24.011-24.009h-49.925
		c-13.235,0-24.007,10.771-24.007,24.009v407.965c0,13.238,10.771,24.009,24.007,24.009H420.199z M364.821,723.933V315.968
		c0-2.958,2.496-5.456,5.454-5.456h49.925c2.958,0,5.458,2.498,5.458,5.456v407.965c0,2.958-2.5,5.456-5.458,5.456h-49.925
		C367.317,729.389,364.821,726.891,364.821,723.933z"/>
	<path d="M722.945,262.123h-48.937c-13.512,0-24.505,10.991-24.505,24.503v436.814c0,13.512,10.993,24.503,24.505,24.503h48.937
		c13.512,0,24.505-10.991,24.505-24.503V286.625C747.45,273.114,736.457,262.123,722.945,262.123z M728.897,723.439
		c0,3.225-2.727,5.95-5.952,5.95h-48.937c-3.225,0-5.952-2.725-5.952-5.95V286.625c0-3.225,2.727-5.949,5.952-5.949h48.937
		c3.225,0,5.952,2.724,5.952,5.949V723.439z"/>
	<path fill="#F16235" d="M131.939,724.069c0,2.883-2.437,5.32-5.322,5.32H76.421c-2.881,0-5.318-2.437-5.318-5.32V508.947
		c0-2.885,2.437-5.322,5.318-5.322h50.196c2.885,0,5.322,2.437,5.322,5.322V724.069z"/>
	<path fill="#58C7DE" d="M364.821,723.933V315.968c0-2.958,2.496-5.456,5.454-5.456h49.925c2.958,0,5.458,2.498,5.458,5.456v407.965
		c0,2.958-2.5,5.456-5.458,5.456h-49.925C367.317,729.389,364.821,726.891,364.821,723.933z"/>
	<path fill="#F16235" d="M728.897,723.439c0,3.225-2.727,5.95-5.952,5.95h-48.937c-3.225,0-5.952-2.725-5.952-5.95V286.625
		c0-3.225,2.727-5.949,5.952-5.949h48.937c3.225,0,5.952,2.724,5.952,5.949V723.439z"/>
	
		<ellipse transform="matrix(0.0159 -0.9999 0.9999 0.0159 -266.2397 478.2646)" fill="#58C7DE" cx="109.849" cy="374.388" rx="20.193" ry="20.193"/>
	<path fill="#F16235" d="M250.509,257.485c-11.138,0-20.197-9.059-20.197-20.195c0-11.134,9.059-20.193,20.197-20.193
		c11.134,0,20.193,9.059,20.193,20.193C270.702,248.426,261.643,257.485,250.509,257.485z"/>
	<path fill="#58C7DE" d="M394.499,165.605c-11.138,0-20.197-9.059-20.197-20.193c0-11.136,9.059-20.195,20.197-20.195
		c11.134,0,20.193,9.059,20.193,20.195C414.692,156.546,405.632,165.605,394.499,165.605z"/>
	<path fill="#F16235" d="M543.127,257.485c-11.134,0-20.193-9.059-20.193-20.195c0-11.134,9.059-20.193,20.193-20.193
		c11.134,0,20.193,9.059,20.193,20.193C563.32,248.426,554.26,257.485,543.127,257.485z"/>
	<path fill="#58C7DE" d="M697.738,70.611c11.134,0,20.193,9.059,20.193,20.195c0,11.134-9.059,20.193-20.193,20.193
		c-11.138,0-20.197-9.059-20.197-20.193C677.541,79.671,686.6,70.611,697.738,70.611z"/>
</g>
</svg>
